<svg id="Capa_1" enable-background="new 0 0 512.151 512.151" height="512" viewBox="0 0 512.151 512.151" width="512" xmlns="http://www.w3.org/2000/svg"><g><path d="m7.502 162.279h403.809v217.436h-403.809z" fill="#aee69c"/><path d="m7.5 162.276h20v217.44h-20z" fill="#89daa4"/><path d="m349.187 348.653h-279.56c0-17.155-13.907-31.062-31.062-31.062v-93.187c17.155 0 31.062-13.907 31.062-31.062h279.56v.001c0 17.155 13.907 31.062 31.062 31.062v93.187c-17.155-.001-31.062 13.906-31.062 31.061z" fill="#89daa4"/><path d="m80.53 326.686c5.62 5.62 9.1 13.39 9.1 21.97h-20c0-8.58-3.48-16.35-9.1-21.97s-13.39-9.1-21.97-9.1v-93.18c8.58 0 16.35-3.48 21.97-9.1s9.1-13.38 9.1-21.96h20c0 8.58-3.48 16.34-9.1 21.96s-13.39 9.1-21.97 9.1v93.18c8.58 0 16.35 3.48 21.97 9.1z" fill="#6ecb8b"/><path d="m7.502 100.155h403.809v31.062h-403.809z" fill="#aee69c"/><path d="m7.5 100.156h20v31.06h-20z" fill="#89daa4"/><path d="m7.502 69.093h403.809v31.062h-403.809z" fill="#89daa4"/><path d="m7.5 69.096h20v31.06h-20z" fill="#6ecb8b"/><ellipse cx="209.407" cy="271.137" fill="#fff292" rx="59" ry="77.795"/><ellipse cx="91.668" cy="271.137" fill="#fff292" rx="22.461" ry="23.297"/><path d="m7.502 131.217h403.809v31.062h-403.809z" fill="#89daa4"/><path d="m7.5 131.216h20v31.06h-20z" fill="#6ecb8b"/><circle cx="395.78" cy="334.185" fill="#fff292" r="108.871"/><path d="m336.909 334.185c0-51.525 35.793-94.689 83.871-105.986-8.027-1.886-16.397-2.885-25-2.885-60.128 0-108.871 48.743-108.871 108.871s48.743 108.871 108.871 108.871c8.603 0 16.973-.998 25-2.885-48.078-11.297-83.871-54.462-83.871-105.986z" fill="#fff292"/><circle cx="395.629" cy="334.247" fill="#f9d264" r="77.656"/><path d="m362.768 404.627c-16.128-18.987-25.859-43.579-25.859-70.443 0-26.766 9.659-51.276 25.681-70.234-26.367 12.413-44.617 39.224-44.617 70.297.001 31.143 18.333 58.004 44.795 70.38z" fill="#efc356"/><g><path d="m91.668 240.34c-16.521 0-29.961 13.815-29.961 30.797s13.44 30.797 29.961 30.797 29.961-13.815 29.961-30.797-13.441-30.797-29.961-30.797zm0 46.594c-8.25 0-14.961-7.087-14.961-15.797s6.711-15.797 14.961-15.797 14.961 7.087 14.961 15.797-6.712 15.797-14.961 15.797z"/><path d="m418.81 220.107v-151.011c0-4.143-3.358-7.5-7.5-7.5h-45.78c-4.142 0-7.5 3.357-7.5 7.5s3.358 7.5 7.5 7.5h38.28v16.061h-388.81v-16.061h317.85c4.142 0 7.5-3.357 7.5-7.5s-3.358-7.5-7.5-7.5h-325.35c-4.142 0-7.5 3.357-7.5 7.5v310.62c0 4.143 3.358 7.5 7.5 7.5h185.56c4.142 0 7.5-3.357 7.5-7.5s-3.358-7.5-7.5-7.5h-178.06v-202.44h388.81v48.32c-7.457-.511-16.373-1.189-23.56-1.189-14.363-1.346-22.217-9.199-23.56-23.561 0-4.143-3.358-7.5-7.5-7.5h-279.56c-4.142 0-7.5 3.357-7.5 7.5-1.352 14.36-9.209 22.213-23.57 23.561-4.571.429-7.071 2.929-7.5 7.5v93.18c0 4.143 3.358 7.5 7.5 7.5 14.366 1.348 22.222 9.205 23.57 23.57 0 4.143 3.358 7.5 7.5 7.5h211.869c1.055 5.5 2.497 10.863 4.299 16.06h-60.048c-4.142 0-7.5 3.357-7.5 7.5s3.358 7.5 7.5 7.5h66.461c19.318 37.575 58.491 63.339 103.569 63.339 64.167 0 116.371-52.203 116.371-116.37 0-56.286-40.167-103.362-93.341-114.079zm-403.81-65.331v-16.06h42.05c4.142 0 7.5-3.357 7.5-7.5s-3.358-7.5-7.5-7.5h-42.05v-16.06h388.81v16.06h-314.08c-4.142 0-7.5 3.357-7.5 7.5s3.358 7.5 7.5 7.5h314.08v16.06zm61.406 186.38c-3.981-16.249-14.096-26.365-30.346-30.346v-79.629c16.245-3.981 26.36-14.093 30.345-30.336h95.39c-17.432 15.393-28.888 41.153-28.888 70.291 0 28.97 11.328 54.597 28.591 70.02zm137.412 0h-8.822c-26.338-3.066-47.089-33.289-47.089-70.02 0-38.709 23.042-70.207 51.387-70.291h.226c28.345.084 51.387 31.582 51.387 70.291 0 36.732-20.751 66.954-47.089 70.02zm65.806 0h-32.308c17.263-15.423 28.591-41.05 28.591-70.02 0-29.138-11.456-54.898-28.888-70.291h95.395c2.284 9.986 7.253 17.822 14.908 23.507-41.989 8.462-85.322 62.582-77.698 116.804zm116.156 94.399c-55.896 0-101.371-45.475-101.371-101.37 0-55.896 45.475-101.371 101.371-101.371s101.371 45.475 101.371 101.371c0 55.895-45.475 101.37-101.371 101.37z"/><path d="m213.672 263.497h-8.531c-4.428 0-8.031-3.603-8.031-8.031s3.603-8.031 8.031-8.031h7.622c2.907 0 5.421 1.87 6.256 4.654 1.189 3.968 5.369 6.223 9.338 5.029 3.967-1.189 6.219-5.371 5.029-9.338-2.346-7.823-8.718-13.442-16.48-14.937v-9.287c0-4.143-3.358-7.5-7.5-7.5s-7.5 3.357-7.5 7.5v9.11c-11.173 1.578-19.797 11.198-19.797 22.8 0 12.699 10.332 23.031 23.031 23.031h8.531c4.428 0 8.031 3.603 8.031 8.031s-3.603 8.031-8.031 8.031h-9.622c-2.907 0-5.421-1.871-6.257-4.655-1.19-3.967-5.373-6.217-9.339-5.028-3.967 1.19-6.218 5.372-5.028 9.339 2.546 8.486 9.825 14.385 18.48 15.229v8.992c0 4.143 3.358 7.5 7.5 7.5s7.5-3.357 7.5-7.5v-9.109c11.173-1.578 19.796-11.198 19.796-22.8.002-12.698-10.329-23.03-23.029-23.03z"/><path d="m395.629 249.092c-46.955 0-85.156 38.2-85.156 85.155s38.201 85.155 85.156 85.155 85.156-38.2 85.156-85.155-38.201-85.155-85.156-85.155zm0 155.311c-38.684 0-70.156-31.472-70.156-70.155s31.472-70.155 70.156-70.155 70.156 31.472 70.156 70.155-31.472 70.155-70.156 70.155z"/><path d="m399.895 327.747h-8.531c-4.428 0-8.031-3.603-8.031-8.031s3.603-8.031 8.031-8.031h7.622c2.907 0 5.421 1.871 6.257 4.655 1.19 3.969 5.373 6.219 9.339 5.028 3.967-1.19 6.219-5.371 5.028-9.339-2.347-7.822-8.719-13.441-16.48-14.936v-9.287c0-4.143-3.358-7.5-7.5-7.5s-7.5 3.357-7.5 7.5v9.11c-11.173 1.578-19.797 11.198-19.797 22.8 0 12.699 10.332 23.031 23.031 23.031h8.531c4.428 0 8.031 3.603 8.031 8.031s-3.603 8.031-8.031 8.031h-9.622c-2.907 0-5.421-1.871-6.257-4.655-1.19-3.968-5.373-6.221-9.339-5.028-3.967 1.19-6.218 5.372-5.028 9.339 2.546 8.486 9.825 14.385 18.48 15.229v8.992c0 4.143 3.358 7.5 7.5 7.5s7.5-3.357 7.5-7.5v-9.109c11.173-1.578 19.797-11.198 19.797-22.8 0-12.698-10.331-23.03-23.031-23.03z"/></g></g></svg>